<svg xmlns="http://www.w3.org/2000/svg" viewBox="0 0 760 255" width="760" height="255" font-family="'Noto Sans KR','IBM Plex Sans KR','Malgun Gothic',sans-serif" font-size="12" fill="#13202A">
<rect width="760" height="255" fill="#FFFFFF"/>
<text x="20.0" y="20.0" text-anchor="start" font-size="12" fill="#13202A" font-weight="bold">(a) 반복 구간 (많음·반복 + 적음·반복)</text>
<line x1="60" y1="210.0" x2="340" y2="210.0" stroke="#D9DFE3"/>
<text x="54.0" y="214.0" text-anchor="end" font-size="10.5" fill="#6B7883" font-weight="normal">0.0</text>
<line x1="60" y1="172.2" x2="340" y2="172.2" stroke="#D9DFE3"/>
<text x="54.0" y="176.2" text-anchor="end" font-size="10.5" fill="#6B7883" font-weight="normal">0.1</text>
<line x1="60" y1="134.4" x2="340" y2="134.4" stroke="#D9DFE3"/>
<text x="54.0" y="138.4" text-anchor="end" font-size="10.5" fill="#6B7883" font-weight="normal">0.2</text>
<line x1="60" y1="96.7" x2="340" y2="96.7" stroke="#D9DFE3"/>
<text x="54.0" y="100.7" text-anchor="end" font-size="10.5" fill="#6B7883" font-weight="normal">0.3</text>
<line x1="60" y1="58.9" x2="340" y2="58.9" stroke="#D9DFE3"/>
<text x="54.0" y="62.9" text-anchor="end" font-size="10.5" fill="#6B7883" font-weight="normal">0.4</text>
<text x="85.0" y="225.0" text-anchor="middle" font-size="10.5" fill="#6B7883" font-weight="normal">0.5 m</text>
<text x="162.0" y="225.0" text-anchor="middle" font-size="10.5" fill="#6B7883" font-weight="normal">1 m</text>
<text x="239.0" y="225.0" text-anchor="middle" font-size="10.5" fill="#6B7883" font-weight="normal">2 m</text>
<text x="316.0" y="225.0" text-anchor="middle" font-size="10.5" fill="#6B7883" font-weight="normal">4 m</text>
<text x="200.0" y="242.0" text-anchor="middle" font-size="11" fill="#6B7883" font-weight="normal">초기 오차 σ</text>
<polyline points="85.0,70.0 162.0,77.3 239.0,90.2 316.0,128.0" fill="none" stroke="#B42335" stroke-width="2"/>
<path d="M81.0 66.0L89.0 74.0M89.0 66.0L81.0 74.0" stroke="#B42335" stroke-width="2" stroke-linecap="round" fill="none"/>
<path d="M158.0 73.3L166.0 81.3M166.0 73.3L158.0 81.3" stroke="#B42335" stroke-width="2" stroke-linecap="round" fill="none"/>
<path d="M235.0 86.2L243.0 94.2M243.0 86.2L235.0 94.2" stroke="#B42335" stroke-width="2" stroke-linecap="round" fill="none"/>
<path d="M312.0 124.0L320.0 132.0M320.0 124.0L312.0 132.0" stroke="#B42335" stroke-width="2" stroke-linecap="round" fill="none"/>
<polyline points="85.0,206.3 162.0,207.2 239.0,151.9 316.0,128.0" fill="none" stroke="#6B7883" stroke-width="2" stroke-dasharray="5 4"/>
<circle cx="85.0" cy="206.3" r="3.6" fill="#FFFFFF" stroke="#6B7883" stroke-width="1.5"/>
<circle cx="162.0" cy="207.2" r="3.6" fill="#FFFFFF" stroke="#6B7883" stroke-width="1.5"/>
<circle cx="239.0" cy="151.9" r="3.6" fill="#FFFFFF" stroke="#6B7883" stroke-width="1.5"/>
<circle cx="316.0" cy="128.0" r="3.6" fill="#FFFFFF" stroke="#6B7883" stroke-width="1.5"/>
<polyline points="85.0,206.3 162.0,194.3 239.0,90.2 316.0,128.0" fill="none" stroke="#1F5FAF" stroke-width="2"/>
<circle cx="85.0" cy="206.3" r="4" fill="#1F5FAF" stroke="#FFFFFF" stroke-width="1"/>
<circle cx="162.0" cy="194.3" r="4" fill="#1F5FAF" stroke="#FFFFFF" stroke-width="1"/>
<circle cx="239.0" cy="90.2" r="4" fill="#1F5FAF" stroke="#FFFFFF" stroke-width="1"/>
<circle cx="316.0" cy="128.0" r="4" fill="#1F5FAF" stroke="#FFFFFF" stroke-width="1"/>
<text x="93.0" y="58.9" text-anchor="start" font-size="11.5" fill="#B42335" font-weight="bold">고정 ±6 m</text>
<text x="93.0" y="187.3" text-anchor="start" font-size="11.5" fill="#1F5FAF" font-weight="bold">3σ 범위</text>
<text x="249.0" y="160.9" text-anchor="start" font-size="11.5" fill="#6B7883" font-weight="bold">2σ 범위</text>
<text x="390.0" y="20.0" text-anchor="start" font-size="12" fill="#13202A" font-weight="bold">(b) 유일 구간 (많음·유일 + 적음·유일)</text>
<line x1="430" y1="210.0" x2="710" y2="210.0" stroke="#D9DFE3"/>
<text x="424.0" y="214.0" text-anchor="end" font-size="10.5" fill="#6B7883" font-weight="normal">0.0</text>
<line x1="430" y1="172.2" x2="710" y2="172.2" stroke="#D9DFE3"/>
<text x="424.0" y="176.2" text-anchor="end" font-size="10.5" fill="#6B7883" font-weight="normal">0.1</text>
<line x1="430" y1="134.4" x2="710" y2="134.4" stroke="#D9DFE3"/>
<text x="424.0" y="138.4" text-anchor="end" font-size="10.5" fill="#6B7883" font-weight="normal">0.2</text>
<line x1="430" y1="96.7" x2="710" y2="96.7" stroke="#D9DFE3"/>
<text x="424.0" y="100.7" text-anchor="end" font-size="10.5" fill="#6B7883" font-weight="normal">0.3</text>
<line x1="430" y1="58.9" x2="710" y2="58.9" stroke="#D9DFE3"/>
<text x="424.0" y="62.9" text-anchor="end" font-size="10.5" fill="#6B7883" font-weight="normal">0.4</text>
<text x="455.0" y="225.0" text-anchor="middle" font-size="10.5" fill="#6B7883" font-weight="normal">0.5 m</text>
<text x="532.0" y="225.0" text-anchor="middle" font-size="10.5" fill="#6B7883" font-weight="normal">1 m</text>
<text x="609.0" y="225.0" text-anchor="middle" font-size="10.5" fill="#6B7883" font-weight="normal">2 m</text>
<text x="686.0" y="225.0" text-anchor="middle" font-size="10.5" fill="#6B7883" font-weight="normal">4 m</text>
<text x="570.0" y="242.0" text-anchor="middle" font-size="11" fill="#6B7883" font-weight="normal">초기 오차 σ</text>
<polyline points="455.0,210.0 532.0,210.0 609.0,210.0 686.0,204.0" fill="none" stroke="#B42335" stroke-width="2"/>
<path d="M451.0 206.0L459.0 214.0M459.0 206.0L451.0 214.0" stroke="#B42335" stroke-width="2" stroke-linecap="round" fill="none"/>
<path d="M528.0 206.0L536.0 214.0M536.0 206.0L528.0 214.0" stroke="#B42335" stroke-width="2" stroke-linecap="round" fill="none"/>
<path d="M605.0 206.0L613.0 214.0M613.0 206.0L605.0 214.0" stroke="#B42335" stroke-width="2" stroke-linecap="round" fill="none"/>
<path d="M682.0 200.0L690.0 208.0M690.0 200.0L682.0 208.0" stroke="#B42335" stroke-width="2" stroke-linecap="round" fill="none"/>
<polyline points="455.0,210.0 532.0,210.0 609.0,210.0 686.0,204.0" fill="none" stroke="#6B7883" stroke-width="2" stroke-dasharray="5 4"/>
<circle cx="455.0" cy="210.0" r="3.6" fill="#FFFFFF" stroke="#6B7883" stroke-width="1.5"/>
<circle cx="532.0" cy="210.0" r="3.6" fill="#FFFFFF" stroke="#6B7883" stroke-width="1.5"/>
<circle cx="609.0" cy="210.0" r="3.6" fill="#FFFFFF" stroke="#6B7883" stroke-width="1.5"/>
<circle cx="686.0" cy="204.0" r="3.6" fill="#FFFFFF" stroke="#6B7883" stroke-width="1.5"/>
<polyline points="455.0,210.0 532.0,210.0 609.0,210.0 686.0,204.0" fill="none" stroke="#1F5FAF" stroke-width="2"/>
<circle cx="455.0" cy="210.0" r="4" fill="#1F5FAF" stroke="#FFFFFF" stroke-width="1"/>
<circle cx="532.0" cy="210.0" r="4" fill="#1F5FAF" stroke="#FFFFFF" stroke-width="1"/>
<circle cx="609.0" cy="210.0" r="4" fill="#1F5FAF" stroke="#FFFFFF" stroke-width="1"/>
<circle cx="686.0" cy="204.0" r="4" fill="#1F5FAF" stroke="#FFFFFF" stroke-width="1"/>
<text x="455.0" y="191.1" text-anchor="start" font-size="11" fill="#6B7883" font-weight="normal">세 방식 모두 0에 가깝다</text>
<text transform="rotate(-90 14 130)" x="14.0" y="130.0" text-anchor="middle" font-size="11" fill="#6B7883" font-weight="normal">사후 검사를 통과한 오정합 비율</text>
</svg>
